<?xml version="1.0" encoding="UTF-8" standalone="no"?>
<svg
   xmlns:sketch="http://www.bohemiancoding.com/sketch/ns"
   xmlns:dc="http://purl.org/dc/elements/1.1/"
   xmlns:cc="http://creativecommons.org/ns#"
   xmlns:rdf="http://www.w3.org/1999/02/22-rdf-syntax-ns#"
   xmlns:svg="http://www.w3.org/2000/svg"
   xmlns="http://www.w3.org/2000/svg"
   width="88.370827mm"
   height="74.370827mm"
   viewBox="0 0 88.370826 74.370826"
   version="1.1"
   id="svg8">
  <defs
     id="defs2" />
  <metadata
     id="metadata5">
    <rdf:RDF>
      <cc:Work
         rdf:about="">
        <dc:format>image/svg+xml</dc:format>
        <dc:type
           rdf:resource="http://purl.org/dc/dcmitype/StillImage" />
        <dc:title></dc:title>
      </cc:Work>
    </rdf:RDF>
  </metadata>
  <g
     style="display:inline"
     id="layer2">
    <g
       sketch:type="MSPage"
       id="Page-1"
       transform="matrix(3.6821182,0,0,3.6821182,-0.34994111,-6.6189894)"
       style="fill:none;fill-rule:evenodd;stroke:none;stroke-width:1">
      <g
         sketch:type="MSArtboardGroup"
         id="ic_cast_black_24dp">
        <g
           sketch:type="MSLayerGroup"
           id="ic_remove_circle_white_24dp">
          <path
             id="cast"
             transform="matrix(0.07185629,0,0,0.07185629,0.09503799,1.7976037)"
             d="m 40.427734,16.732422 c -15.308333,0 -27.833984,12.525651 -27.833984,27.833984 v 41.75 h 27.833984 v -41.75 H 290.92773 V 239.40039 h -97.41796 v 27.83203 h 97.41796 c 15.30834,0 27.83204,-12.5237 27.83204,-27.83203 V 44.566406 c 0,-15.308333 -12.5237,-27.833984 -27.83204,-27.833984 z"
             style="fill:#555555;fill-opacity:1;stroke-width:13.91666698" />
          <rect
             height="24"
             width="24"
             y="0"
             x="0"
             sketch:type="MSShapeGroup"
             id="bounds" />
        </g>
      </g>
      <g
         transform="translate(-208,-106)"
         sketch:type="MSLayerGroup"
         id="assets">
        <g
           transform="translate(0,114)"
           id="64px" />
      </g>
    </g>
  </g>
  <g
     id="g4624"
     style="display:inline">
    <g
       style="fill:none;fill-rule:evenodd;stroke:none;stroke-width:1"
       transform="matrix(3.6821182,0,0,3.6821182,-0.34994111,-6.6189894)"
       id="g4622"
       sketch:type="MSPage">
      <g
         id="g4616"
         sketch:type="MSArtboardGroup">
        <g
           id="g4614"
           sketch:type="MSLayerGroup">
          <path
             id="path4610"
             transform="matrix(0.07185629,0,0,0.07185629,0.09503799,1.7976037)"
             d="M 12.59375 114.15039 L 12.59375 141.98242 C 81.759585 141.98242 137.84375 198.06659 137.84375 267.23242 L 165.67773 267.23242 C 165.67773 182.61909 97.067918 114.15039 12.59375 114.15039 z M 12.59375 169.81641 L 12.59375 197.65039 C 51.003751 197.65039 82.177734 228.82242 82.177734 267.23242 L 110.00977 267.23242 C 110.00977 213.37492 66.451251 169.81641 12.59375 169.81641 z M 12.59375 225.48242 L 12.59375 267.23242 L 54.34375 267.23242 C 54.34375 244.13075 35.695417 225.48242 12.59375 225.48242 z "
             style="fill:#66b66a;fill-opacity:1;stroke-width:13.91666698" />
          <rect
             id="rect4612"
             sketch:type="MSShapeGroup"
             x="0"
             y="0"
             width="24"
             height="24" />
        </g>
      </g>
      <g
         id="g4620"
         sketch:type="MSLayerGroup"
         transform="translate(-208,-106)">
        <g
           id="g4618"
           transform="translate(0,114)" />
      </g>
    </g>
  </g>
  <g
     style="display:inline"
     id="layer4">
    <g
       id="layer1"
       transform="translate(-8.1201742,-22.176239)">
      <text
         xml:space="preserve"
         style="font-style:normal;font-weight:normal;font-size:10.93267536px;line-height:1.25;font-family:sans-serif;letter-spacing:0px;word-spacing:0px;fill:#555555;fill-opacity:1;stroke:none;stroke-width:0.27331686;"
         x="41.415398"
         y="56.464912"
         id="text3798"><tspan
           id="tspan3796"
           x="41.415398"
           y="56.464912"
           style="font-style:normal;font-variant:normal;font-weight:bold;font-stretch:normal;font-size:26.23842049px;font-family:'Product Sans';-inkscape-font-specification:'Product Sans Bold';fill:#555555;fill-opacity:1;stroke-width:0.27331686;">MC</tspan></text>
    </g>
  </g>
</svg>
